# xmcd CD database file
#
# Track frame offsets:
#	150
#	11649
#	23988
#	38905
#	50703
#	62165
#	75535
#	90625
#	103809
#	114594
#	128037
#	142342
#	155385
#	166343
#
# Disc length: 2420 seconds
#
# Revision: 3
# Processed by: cddbd v1.5.2PL0 Copyright (c) Steve Scherf et al.
# Submitted via: CDex 1.70beta2
#
DISCID=bd09720e
DTITLE=Johnny Cash - Starboulevard CD 1
DYEAR=2008
DGENRE=Country
TTITLE0=I Walk The Line
TTITLE1=Ring Of Fire
TTITLE2=Cats In The Cradle
TTITLE3=Im An Easy Rider
TTITLE4=Get Rhythm
TTITLE5=Dont Take Your Guns To Town
TTITLE6=Letters From Home
TTITLE7=Peace In The Valley
TTITLE8=Angel And The Badman
TTITLE9=Water From The Wells Of Home
TTITLE10=Id Rather Have You
TTITLE11=Wanted Man
TTITLE12=Cry Cry Cry
TTITLE13=A Backstage Pass
EXTD=YEAR: 2008
EXTT0=
EXTT1=
EXTT2=
EXTT3=
EXTT4=
EXTT5=
EXTT6=
EXTT7=
EXTT8=
EXTT9=
EXTT10=
EXTT11=
EXTT12=
EXTT13=
PLAYORDER=
